{"title":"Ellie Goulding - Love Me Like You Do.mp4","uid":12037644,"size":89967399,"categoryP":"video","categoryS":"music_videos","magnet":"?xt=urn:btih:ae2f9fc95c0804716456504e12d4e4aa2a8a3e7e&amp;dn=Ellie+Goulding+-+Love+Me+Like+You+Do.mp4&amp;tr=udp%3A%2F%2Ftracker.openbittorrent.com%3A80&amp;tr=udp%3A%2F%2Fopen.demonii.com%3A1337&amp;tr=udp%3A%2F%2Ftracker.coppersurfer.tk%3A6969&amp;tr=udp%3A%2F%2Fexodus.desync.com%3A6969","seeders":0,"leechers":0,"uploader":"rips531","files":1,"time":1434714567,"description":"General\nComplete name                            : Ellie Goulding - Love Me Like You Do.mp4\nFormat                                   : MPEG-4\nFormat profile                           : Base Media\nCodec ID                                 : isom\nFile size                                : 85.8 MiB\nDuration                                 : 4mn 9s\nOverall bit rate                         : 2 887 Kbps\nMovie name                               : Love Me Like You Do\nMovie name/More                          : Ellie Goulding\nAlbum                                    : OST.Fifty Shades of Grey\nPerformer                                : Ellie Goulding\nGenre                                    : Soundtrack\nContentType                              : Music Video\nRecorded date                            : 2015\nWriting application                      : MeRaDil\nISRC                                     : &lt;a class=&quot;__cf_email__&quot; href=&quot;/cdn-cgi/l/email-protection&quot; data-cfemail=&quot;73011a0300464042330a121b1c1c5d101c1e&quot;&gt;[email&amp;#160;protected]&lt;/a&gt;&lt;script data-cfhash='f9e31' type=&quot;text/javascript&quot;&gt;\n/* &lt;![CDATA[ */!function(){try{var t=&quot;currentScript&quot;in document?document.currentScript:function(){for(var t=document.getElementsByTagName(&quot;script&quot;),e=t.length;e--;)if(t[e].getAttribute(&quot;data-cfhash&quot;))return t[e]}();if(t&amp;&amp;t.previousSibling){var e,r,n,i,c=t.previousSibling,a=c.getAttribute(&quot;data-cfemail&quot;);if(a){for(e=&quot;&quot;,r=parseInt(a.substr(0,2),16),n=2;a.length-n;n+=2)i=parseInt(a.substr(n,2),16)^r,e+=String.fromCharCode(i);e=document.createTextNode(e),c.parentNode.replaceChild(e,c)}t.parentNode.removeChild(t);}}catch(u){}}()/* ]]&gt; */&lt;/script&gt;\nCopyright                                : Ellie Goulding\nCover                                    : Yes\nComment                                  : from the movie  Fifty Shades of Grey\nRating                                   : None\nMake                                     : MeRaDil\noday                                     : UK 22-01-2015\nrati                                     : (Binary)\naurl                                     : http://elliegoulding.com\nlabl                                     : Polydor\nrelt                                     : UK . january 22 . 2015\nPart_ID                                  : Love Me Like You Do\nXtra                                     : WM/ContentDistributor\n\nVideo\nID                                       : 1\nFormat                                   : AVC\nFormat/Info                              : Advanced Video Codec\nFormat profile                           : High@L4\nFormat settings, CABAC                   : Yes\nFormat settings, ReFrames                : 2 frames\nCodec ID                                 : avc1\nCodec ID/Info                            : Advanced Video Coding\nDuration                                 : 4mn 9s\nBit rate                                 : 2 625 Kbps\nWidth                                    : 1 920 pixels\nHeight                                   : 1 080 pixels\nDisplay aspect ratio                     : 16:9\nFrame rate mode                          : Constant\nFrame rate                               : 25.000 fps\nColor space                              : YUV\nChroma subsampling                       : 4:2:0\nBit depth                                : 8 bits\nScan type                                : Progressive\nBits/(Pixel*Frame)                       : 0.051\nStream size                              : 78.0 MiB (91%)\n\nAudio\nID                                       : 2\nFormat                                   : AAC\nFormat/Info                              : Advanced Audio Codec\nFormat profile                           : LC\nCodec ID                                 : 40\nDuration                                 : 4mn 9s\nBit rate mode                            : Constant\nBit rate                                 : 256 Kbps\nChannel(s)                               : 2 channels\nChannel positions                        : Front: L R\nSampling rate                            : 44.1 KHz\nCompression mode                         : Lossy\nStream size                              : 7.61 MiB (9%)","torrent":{"xt":"urn:btih:ae2f9fc95c0804716456504e12d4e4aa2a8a3e7e","amp;dn":"Ellie+Goulding+-+Love+Me+Like+You+Do.mp4","amp;tr":["udp%3A%2F%2Ftracker.openbittorrent.com%3A80","udp%3A%2F%2Fopen.demonii.com%3A1337","udp%3A%2F%2Ftracker.coppersurfer.tk%3A6969","udp%3A%2F%2Fexodus.desync.com%3A6969"],"infoHash":"ae2f9fc95c0804716456504e12d4e4aa2a8a3e7e","infoHashBuffer":{"type":"Buffer","data":[174,47,159,201,92,8,4,113,100,86,80,78,18,212,228,170,42,138,62,126]},"announce":[],"urlList":[]}}